<svg id="Capa_1" enable-background="new 0 0 512 512" height="512" viewBox="0 0 512 512" width="512" xmlns="http://www.w3.org/2000/svg"><g><g><path d="m178.209 157.908v21.462c0 4.142 3.358 7.5 7.5 7.5s7.5-3.358 7.5-7.5v-21.462c0-4.142-3.358-7.5-7.5-7.5s-7.5 3.358-7.5 7.5z"/><path d="m275.709 186.871c4.143 0 7.5-3.358 7.5-7.5v-21.462c0-4.142-3.357-7.5-7.5-7.5s-7.5 3.358-7.5 7.5v21.462c0 4.142 3.357 7.5 7.5 7.5z"/><path d="m219.413 208.333h11.296c4.142 0 7.5-3.358 7.5-7.5s-3.358-7.5-7.5-7.5h-.784l7.876-22.893c1.348-3.917-.735-8.185-4.652-9.532-3.916-1.348-8.184.735-9.532 4.652l-11.296 32.833c-.789 2.292-.421 4.823.986 6.796 1.409 1.973 3.683 3.144 6.106 3.144z"/><path d="m230.709 250.763c10.888 0 21.776-4.144 30.065-12.433 2.929-2.929 2.929-7.678 0-10.606s-7.678-2.928-10.607 0c-10.729 10.729-28.187 10.729-38.916 0-2.929-2.929-7.678-2.929-10.606 0-2.929 2.929-2.929 7.678 0 10.606 8.288 8.289 19.177 12.433 30.064 12.433z"/><path d="m419.135 357.104c-5.647 0-11.164-1.563-15.954-4.519-2.876-1.775-6.268-2.295-9.557-1.467-3.262.823-6.098 2.966-7.779 5.88l-15.045 26.059c-3.396 5.881-1.518 13.306 4.276 16.902 13.213 8.204 28.448 12.541 44.059 12.541s30.846-4.336 44.06-12.541c5.793-3.598 7.671-11.021 4.275-16.901l-15.045-26.058c-1.682-2.914-4.518-5.058-7.778-5.881-3.287-.83-6.68-.31-9.557 1.466-4.791 2.957-10.308 4.519-15.955 4.519zm34.115 31.325c-10.353 5.942-22.097 9.071-34.115 9.071s-23.763-3.129-34.115-9.071l12.563-21.761c6.605 3.564 14.002 5.437 21.552 5.437s14.947-1.873 21.552-5.437z"/><path d="m441.194 488.376h22.085c4.143 0 7.5-3.358 7.5-7.5s-3.357-7.5-7.5-7.5h-22.085c-4.143 0-7.5 3.358-7.5 7.5s3.358 7.5 7.5 7.5z"/><circle cx="408.209" cy="382.5" r="7.5"/><path d="m481.291 437.5c6.893 0 12.5-5.607 12.5-12.5v-89c0-6.893-5.607-12.5-12.5-12.5h-17.291c-4.143 0-7.5 3.358-7.5 7.5s3.357 7.5 7.5 7.5h14.791v84h-119.313v-84h69.522c4.143 0 7.5-3.358 7.5-7.5s-3.357-7.5-7.5-7.5h-22.226c-10.283-15.649-27.98-26.009-48.065-26.009h-47.127l-7.276-15.758h20.391c28.128 0 51.012-22.884 51.012-51.013v-78.323c0-84.032-65.047-152.397-145-152.397s-145 68.365-145 152.397v78.323c0 28.128 22.884 51.013 51.013 51.013h20.391l-7.276 15.758h-47.128c-31.706 0-57.5 25.794-57.5 57.5v13.244h-14.5c-6.893 0-12.5 5.607-12.5 12.5v39.43c0 4.45 2.395 8.598 6.25 10.825l13.727 7.925v60.585c0 6.893 5.607 12.5 12.5 12.5h430.604c6.893 0 12.5-5.607 12.5-12.5v-32.248c0-9.649-7.851-17.5-17.5-17.5h-33.689v-12.252zm-70.624 0h16.935v12.252h-16.935zm-88.671-81.673-22.787 12.796-10.168-8.23v-75.938zm38.713-125.107c0 19.857-16.155 36.013-36.012 36.013h-22.62c9.968-8.801 18.022-19.721 23.414-32.068h12.718c8.436 0 16.228-2.801 22.5-7.52zm0-33.555c0 12.407-10.094 22.5-22.5 22.5h-7.671c1.668-6.898 2.558-14.097 2.558-21.5v-34.665h5.113c12.406 0 22.5 10.093 22.5 22.5zm-260-44.768c0-75.761 58.318-137.397 130-137.397s130 61.636 130 137.397v3.623c-6.272-4.719-14.064-7.52-22.5-7.52h-5.113v-26.108c0-20.678-16.822-37.5-37.5-37.5h-54.232c-2.846 0-5.63.531-8.275 1.577l-25.065 12.39c-3.711 1.839-5.229 6.338-3.391 10.05 1.839 3.712 6.34 5.23 10.05 3.391l24.167-11.973c.808-.288 1.653-.434 2.515-.434h54.232c12.406 0 22.5 10.093 22.5 22.5v75.772c0 42.182-34.317 76.5-76.5 76.5h-21.772c-42.182 0-76.5-34.318-76.5-76.5v-45.856c0-2.871 1.598-5.446 4.17-6.72l35.799-17.737c3.711-1.839 5.229-6.338 3.391-10.05-1.838-3.711-6.337-5.229-10.05-3.391l-35.798 17.736c-6.558 3.249-10.992 9.319-12.181 16.353h-5.445c-8.436 0-16.228 2.801-22.5 7.52v-3.623zm161.306 134.969-31.305 93.917-31.306-93.917c6.568 1.503 13.402 2.298 20.42 2.298h21.772c7.016 0 13.851-.795 20.419-2.298zm-161.306-101.366c0-12.407 10.093-22.5 22.5-22.5h5.114v34.664c0 7.404.89 14.602 2.558 21.5h-7.672c-12.407 0-22.5-10.093-22.5-22.5zm36.013 80.732c-19.857 0-36.013-16.155-36.013-36.013v-3.576c6.272 4.719 14.064 7.52 22.5 7.52h12.718c5.393 12.347 13.447 23.267 23.414 32.068h-22.619zm-103.513 116.502h66.954v11.766h-66.954zm46.977 54.237v59.529h-26.274l-.725-5.21v-54.319c0-4.452-2.395-8.6-6.25-10.825l-13.727-7.925v-8.721h66.954v8.721l-13.727 7.925c-3.856 2.226-6.251 6.374-6.251 10.825zm15 59.529v-58.085l13.728-7.926c3.855-2.226 6.25-6.374 6.25-10.825v-39.43c0-6.893-5.607-12.5-12.5-12.5h-42.455v-13.244c0-23.435 19.065-42.5 42.5-42.5h40.202l-18.849 40.824c-2.28 4.938-.351 10.893 4.392 13.556l21.208 11.91-19.551 15.825c-3.725 3.014-4.937 8.164-2.947 12.523v.001l41.043 89.871zm77.191-26.976-30.12-65.952 30.12-24.38zm0-109.63-10.167 8.23-22.787-12.796 32.954-71.371zm109.164 71.106c-4.143 0-7.5 3.358-7.5 7.5v58h-86.664v-198.278l31.473 94.419c1.704 5.112 6.47 8.547 11.858 8.547 5.389 0 10.155-3.435 11.859-8.547l31.473-94.419v105.278c0 4.142 3.357 7.5 7.5 7.5s7.5-3.358 7.5-7.5v-24.309l30.12 24.38-30.12 65.952v-31.023c.001-4.142-3.357-7.5-7.499-7.5zm62.937 35.752v29.748h-51.267l41.044-89.872c1.99-4.36.777-9.51-2.946-12.522l-19.553-15.826 21.208-11.909c4.744-2.664 6.673-8.62 4.393-13.557l-18.849-40.823h40.201c10.958 0 20.955 4.174 28.498 11.009h-30.229c-6.893 0-12.5 5.607-12.5 12.5v89c0 6.893 5.607 12.5 12.5 12.5h38.688v12.252h-33.688c-9.649 0-17.5 7.851-17.5 17.5zm131.813-2.5c1.379 0 2.5 1.122 2.5 2.5v29.748h-119.313v-29.748c0-1.378 1.121-2.5 2.5-2.5z"/></g></g></svg>