<?xml version="1.0" encoding="iso-8859-1"?>
<!-- Generator: Adobe Illustrator 19.0.0, SVG Export Plug-In . SVG Version: 6.00 Build 0)  -->
<svg version="1.1" id="Capa_1" xmlns="http://www.w3.org/2000/svg" xmlns:xlink="http://www.w3.org/1999/xlink" x="0px" y="0px"
	 viewBox="0 0 512 512" style="enable-background:new 0 0 512 512;" xml:space="preserve">
<path style="fill:#00897B;" d="M191.999,512h-0.363c-5.888-0.197-10.501-5.129-10.304-11.017c0-0.004,0-0.008,0-0.012
	c-1.021-20.659,9.086-40.287,26.496-51.456c5.103-2.943,11.626-1.191,14.569,3.912c2.868,4.974,1.285,11.325-3.582,14.371
	c-10.987,7.658-17.125,20.541-16.149,33.899C202.47,507.445,197.751,512.003,191.999,512z"/>
<path style="fill:#009688;" d="M359.722,205.781c-8.442-8.214-19.652-12.97-31.424-13.333c-10.229-1.043-20.433,2.201-28.181,8.96
	c-4.076,3.917-6.202,9.443-5.803,15.083c0.657,5.777,3.386,11.12,7.68,15.04c14.4,14.421,11.755,26.283-10.859,48.917
	c-4.171,4.16-4.179,10.914-0.019,15.085c2.001,2.006,4.717,3.133,7.55,3.134c1.092-0.001,2.178-0.166,3.221-0.491
	c19.029-6.037,64-23.339,71.424-53.333C376.366,230.31,371.137,215.279,359.722,205.781z"/>
<path style="fill:#B0BEC5;" d="M490.666,128c-22.941-4.614-44.169-15.457-61.355-31.339C410.823,79.411,387.626,68.043,362.666,64
	c-34.368,0-88.981,30.464-106.667,40.875C238.314,94.464,183.7,64,149.332,64c-24.961,4.043-48.157,15.411-66.645,32.661
	C65.501,112.543,44.273,123.386,21.332,128c-5.891-0.006-10.671,4.765-10.677,10.656c-0.005,5.077,3.569,9.454,8.544,10.464
	c78.128,14.264,157.38,21.475,236.8,21.547c79.42-0.071,158.672-7.282,236.8-21.547c5.773-1.172,9.503-6.803,8.331-12.576
	C500.119,131.569,495.742,127.995,490.666,128z"/>
<g>
	<circle style="fill:#607D8B;" cx="255.999" cy="53.333" r="53.333"/>
	<path style="fill:#607D8B;" d="M255.999,512c-5.891,0-10.667-4.776-10.667-10.667V96c0-5.891,4.776-10.667,10.667-10.667
		c5.891,0,10.667,4.776,10.667,10.667v405.333C266.666,507.224,261.89,512,255.999,512z"/>
</g>
<path style="fill:#00897B;" d="M350.527,360.683c-4.096-31.04-47.381-45.995-75.989-55.893c-5.824-2.027-10.816-3.733-14.251-5.227
	l0,0c-24.832-10.965-53.525-33.685-56.64-51.2c-1.08-6.276,1.379-12.637,6.4-16.555c8.857-6.551,10.727-19.041,4.176-27.898
	c-0.43-0.581-0.891-1.139-1.382-1.67c-18.164-13.724-43.591-12.289-60.096,3.392c-10.812,8.615-15.854,22.583-13.035,36.117
	c9.813,43.627,101.717,74.197,112.896,77.781c3.797,1.6,8.917,3.413,14.933,5.525c20.779,7.168,59.435,20.544,61.867,38.528
	c1.472,11.136-11.563,26.645-36.693,43.691c-4.878,3.311-6.148,9.949-2.837,14.827c3.311,4.878,9.949,6.148,14.827,2.837
	C338.218,402.091,353.236,381.099,350.527,360.683z"/>
<path style="fill:#009688;" d="M319.999,512c-0.666-0.003-1.33-0.067-1.984-0.192c-5.79-1.079-9.611-6.647-8.533-12.437
	c0.171-1.216,4.373-33.771-56.555-51.819c-60.117-17.813-90.731-39.04-93.632-64.917c-2.368-21.333,14.059-41.856,48.789-61.291
	c5.143-2.875,11.643-1.036,14.517,4.107s1.036,11.643-4.107,14.517c-25.408,14.208-39.253,28.885-37.995,40.32
	c0.811,7.317,10.091,26.539,78.485,46.805c80.299,23.787,71.851,74.069,71.445,76.181C329.499,508.31,325.12,511.973,319.999,512z"
	/>
<g>
</g>
<g>
</g>
<g>
</g>
<g>
</g>
<g>
</g>
<g>
</g>
<g>
</g>
<g>
</g>
<g>
</g>
<g>
</g>
<g>
</g>
<g>
</g>
<g>
</g>
<g>
</g>
<g>
</g>
</svg>
