<?xml version="1.0" encoding="iso-8859-1"?>
<!-- Generator: Adobe Illustrator 19.0.0, SVG Export Plug-In . SVG Version: 6.00 Build 0)  -->
<svg version="1.1" id="Capa_1" xmlns="http://www.w3.org/2000/svg" xmlns:xlink="http://www.w3.org/1999/xlink" x="0px" y="0px"
	 viewBox="0 0 497.448 497.448" style="enable-background:new 0 0 497.448 497.448;" xml:space="preserve">
<g>
	<g>
		<g>
			<path d="M358.28,321.9l-68.832-22.944v-10.232h-16v15.016l-11.944,47.76l-32.312-38.776h-23.496L173.384,351.5l-11.936-47.76
				v-15.016h-16v10.232L76.616,321.9c-31,10.336-53.6,36.784-58.976,69.016L0,496.724h434.888l-17.64-105.808
				C411.888,358.684,389.288,332.236,358.28,321.9z M225.448,480.724v-128h-16v128H90.288l7.12-71.2l-15.92-1.592l-7.28,72.8H18.896
				l14.528-87.184c4.392-26.368,22.888-48.008,48.256-56.472l47.768-15.92v72.704c-13.76,3.576-24,15.992-24,30.864
				c0,17.648,14.352,32,32,32s32-14.352,32-32c0-14.872-10.24-27.288-24-30.864v-78.04l2.336-0.776l17.728,70.904l47.68-57.224
				h8.504l47.688,57.224l17.728-70.904l2.336,0.776v63.96l-30.312,15.16c-10.912,5.448-17.688,16.416-17.688,28.616v9.168
				c0,17.648,14.352,32,32,32h8v-16h-8c-8.824,0-16-7.176-16-16v-9.168c0-6.104,3.384-11.584,8.84-14.312l31.16-15.576l31.16,15.576
				c5.456,2.728,8.84,8.216,8.84,14.312v9.168c0,8.824-7.176,16-16,16h-8v16h8c7.968,0,15.168-3.032,20.776-7.864l2.384,23.864
				H225.448z M137.448,408.724c8.824,0,16,7.176,16,16c0,8.824-7.176,16-16,16c-8.824,0-16-7.176-16-16
				C121.448,415.9,128.624,408.724,137.448,408.724z M360.688,480.724l-7.28-72.8l-3.872,0.384
				c-3.056-5.648-7.76-10.368-13.776-13.376l-30.312-15.152v-58.624l47.776,15.92c25.368,8.464,43.856,30.104,48.256,56.472
				L416,480.724H360.688z"/>
			<path d="M116.984,216.276c4.08,14.04,11.616,26.912,22.24,37.536l31.2,31.192c7.552,7.552,17.6,11.72,28.28,11.72H236.2
				c10.68,0,20.728-4.168,28.28-11.72l31.2-31.192c10.624-10.624,18.16-23.496,22.24-37.536
				c19.928-2.256,35.528-19.024,35.528-39.552c0-13.128-6.448-24.704-16.248-32h0.248v-24c0-66.168-53.832-120-120-120
				s-120,53.832-120,120v24h0.248c-9.8,7.296-16.248,18.872-16.248,32C81.448,197.252,97.048,214.02,116.984,216.276z
				 M305.448,191.58c0,19.24-7.488,37.312-21.088,50.92l-31.2,31.192c-4.464,4.472-10.648,7.032-16.968,7.032h-37.496
				c-6.32,0-12.496-2.56-16.968-7.032l-31.2-31.192c-13.6-13.6-21.088-31.68-21.088-50.912v-38.864h59.16
				c18.696,0,36.856-5.016,52.84-14.544c15.992,9.528,34.152,14.544,52.848,14.544h11.16V191.58z M337.448,176.724
				c0,10.552-6.896,19.44-16.376,22.64c0.224-2.576,0.376-5.16,0.376-7.784v-37.384
				C330.736,157.508,337.448,166.308,337.448,176.724z M113.448,120.724c0-57.344,46.656-104,104-104s104,46.656,104,104v16.808
				c-2.584-0.528-5.264-0.808-8-0.808h-19.16c-17.28,0-34.016-5.072-48.408-14.656l-4.432-2.96l-4.44,2.96
				c-14.384,9.584-31.12,14.656-48.4,14.656h-67.16c-2.736,0-5.416,0.28-8,0.808V120.724z M113.448,154.196v37.384
				c0,2.616,0.152,5.208,0.376,7.784c-9.48-3.2-16.376-12.088-16.376-22.64C97.448,166.308,104.16,157.508,113.448,154.196z"/>
			<polygon points="297.448,0.724 297.448,16.724 481.448,16.724 481.448,336.724 417.448,336.724 417.448,352.724 497.448,352.724 
				497.448,0.724 			"/>
			<polygon points="353.448,128.724 409.448,128.724 409.448,112.724 369.448,112.724 369.448,96.724 409.448,96.724 
				409.448,80.724 369.448,80.724 369.448,64.724 409.448,64.724 409.448,48.724 353.448,48.724 			"/>
			<polygon points="465.448,208.724 465.448,192.724 409.448,192.724 409.448,272.724 465.448,272.724 465.448,256.724 
				425.448,256.724 425.448,240.724 465.448,240.724 465.448,224.724 425.448,224.724 425.448,208.724 			"/>
			<polygon points="337.448,256.724 305.448,256.724 305.448,272.724 353.448,272.724 353.448,224.724 337.448,224.724 			"/>
		</g>
	</g>
</g>
<g>
</g>
<g>
</g>
<g>
</g>
<g>
</g>
<g>
</g>
<g>
</g>
<g>
</g>
<g>
</g>
<g>
</g>
<g>
</g>
<g>
</g>
<g>
</g>
<g>
</g>
<g>
</g>
<g>
</g>
</svg>
